HIERARCHY
ROOT center
{
	OFFSET 0.000000 0.000000 0.000000 
	CHANNELS 0
JOINT hip
{
	OFFSET 0.000000 0.000000 0.000000 
	CHANNELS 6 Xposition Yposition Zposition Zrotation Yrotation Xrotation
	JOINT abdomen
	{
		OFFSET 0.000000 20.688101 -0.731520 
		CHANNELS 3 Zrotation Xrotation Yrotation
		JOINT chest
		{
			OFFSET 0.000000 11.704300 -0.487680 
			CHANNELS 3 Zrotation Xrotation Yrotation
			JOINT neck
			{
				OFFSET 0.000000 22.189400 -2.194560 
				CHANNELS 3 Zrotation Xrotation Yrotation
				JOINT head
				{
					OFFSET -0.243840 7.071330 1.219200 
					CHANNELS 3 Zrotation Xrotation Yrotation
					JOINT leftEye
					{
						OFFSET 4.145280 8.046740 8.046720 
						CHANNELS 3 Zrotation Xrotation Yrotation
						End Site
						{
							OFFSET 1.000000 0.000000 0.000000 
						}
					}
					JOINT rightEye
					{
						OFFSET -3.657600 8.046740 8.046720 
						CHANNELS 3 Zrotation Xrotation Yrotation
						End Site
						{
							OFFSET 1.000000 0.000000 0.000000 
						}
					}
				}
			}
			JOINT rCollar
			{
				OFFSET -2.682240 19.263399 -4.876800 
				CHANNELS 3 Zrotation Xrotation Yrotation
				JOINT rShldr
				{
					OFFSET -8.778240 -1.950730 1.463040 
					CHANNELS 3 Zrotation Xrotation Yrotation
					JOINT rForeArm
					{
						OFFSET -28.174200 -1.711500 0.487680 
						CHANNELS 3 Zrotation Xrotation Yrotation
						JOINT rHand
						{
							OFFSET -22.587900 0.773209 7.071360 
							CHANNELS 3 Zrotation Xrotation Yrotation
							JOINT rThumb1
							{
								OFFSET -1.219200 -0.487915 3.413760 
								CHANNELS 3 Zrotation Xrotation Yrotation
								JOINT rThumb2
								{
									OFFSET -3.370350 -0.524490 3.413760 
									CHANNELS 3 Zrotation Xrotation Yrotation
									End Site
									{
										OFFSET -1.782710 -1.182140 1.430490 
									}
								}
							}
							JOINT rIndex1
							{
								OFFSET -7.759470 0.938293 5.608320 
								CHANNELS 3 Zrotation Xrotation Yrotation
								JOINT rIndex2
								{
									OFFSET -2.540570 -0.884171 1.565380 
									CHANNELS 3 Zrotation Xrotation Yrotation
									End Site
									{
										OFFSET -1.625190 -0.234802 1.165020 
									}
								}
							}
							JOINT rMid1
							{
								OFFSET -8.247140 1.182130 3.413760 
								CHANNELS 3 Zrotation Xrotation Yrotation
								JOINT rMid2
								{
									OFFSET -3.101650 -0.590103 1.064700 
									CHANNELS 3 Zrotation Xrotation Yrotation
									End Site
									{
										OFFSET -2.485470 -0.328903 0.837420 
									}
								}
							}
							JOINT rRing1
							{
								OFFSET -8.828220 0.546677 1.516780 
								CHANNELS 3 Zrotation Xrotation Yrotation
								JOINT rRing2
								{
									OFFSET -2.609340 -0.819778 -0.019849 
									CHANNELS 3 Zrotation Xrotation Yrotation
									End Site
									{
										OFFSET -2.338420 -0.294052 0.168128 
									}
								}
							}
							JOINT rPinky1
							{
								OFFSET -8.272020 -0.047791 -0.458400 
								CHANNELS 3 Zrotation Xrotation Yrotation
								JOINT rPinky2
								{
									OFFSET -1.827340 -0.647385 -0.700984 
									CHANNELS 3 Zrotation Xrotation Yrotation
									End Site
									{
										OFFSET -1.692250 -0.517670 -0.607171 
									}
								}
							}
						}
					}
				}
			}
			JOINT lCollar
			{
				OFFSET 2.682240 19.263399 -4.876800 
				CHANNELS 3 Zrotation Xrotation Yrotation
				JOINT lShldr
				{
					OFFSET 8.778240 -1.950730 1.463040 
					CHANNELS 3 Zrotation Xrotation Yrotation
					JOINT lForeArm
					{
						OFFSET 28.174200 -1.711500 0.487680 
						CHANNELS 3 Zrotation Xrotation Yrotation
						JOINT lHand
						{
							OFFSET 22.587900 0.773209 7.071360 
							CHANNELS 3 Zrotation Xrotation Yrotation
							JOINT lThumb1
							{
								OFFSET 1.219200 -0.487915 3.413760 
								CHANNELS 3 Zrotation Xrotation Yrotation
								JOINT lThumb2
								{
									OFFSET 3.370350 -0.524490 3.413760 
									CHANNELS 3 Zrotation Xrotation Yrotation
									End Site
									{
										OFFSET 1.782710 -1.182140 1.430490 
									}
								}
							}
							JOINT lIndex1
							{
								OFFSET 7.759470 0.938293 5.608320 
								CHANNELS 3 Zrotation Xrotation Yrotation
								JOINT lIndex2
								{
									OFFSET 2.540570 -0.884171 1.565380 
									CHANNELS 3 Zrotation Xrotation Yrotation
									End Site
									{
										OFFSET 1.625190 -0.234802 1.165020 
									}
								}
							}
							JOINT lMid1
							{
								OFFSET 8.247140 1.182130 3.413760 
								CHANNELS 3 Zrotation Xrotation Yrotation
								JOINT lMid2
								{
									OFFSET 3.101650 -0.590103 1.064700 
									CHANNELS 3 Zrotation Xrotation Yrotation
									End Site
									{
										OFFSET 2.485470 -0.328903 0.837420 
									}
								}
							}
							JOINT lRing1
							{
								OFFSET 8.828220 0.546677 1.516780 
								CHANNELS 3 Zrotation Xrotation Yrotation
								JOINT lRing2
								{
									OFFSET 2.609340 -0.819778 -0.019849 
									CHANNELS 3 Zrotation Xrotation Yrotation
									End Site
									{
										OFFSET 2.338420 -0.294052 0.168128 
									}
								}
							}
							JOINT lPinky1
							{
								OFFSET 8.272020 -0.047791 -0.458400 
								CHANNELS 3 Zrotation Xrotation Yrotation
								JOINT lPinky2
								{
									OFFSET 1.827340 -0.647385 -0.700984 
									CHANNELS 3 Zrotation Xrotation Yrotation
									End Site
									{
										OFFSET 1.692250 -0.517670 -0.607171 
									}
								}
							}
						}
					}
				}
			}
		}
	}
	JOINT rButtock
	{
		OFFSET -8.778240 4.350840 1.219200 
		CHANNELS 3 Zrotation Xrotation Yrotation
		JOINT rThigh
		{
			OFFSET 0.000000 -1.706870 -2.194560 
			CHANNELS 3 Zrotation Xrotation Yrotation
			JOINT rShin
			{
				OFFSET 0.000000 -36.819901 0.731520 
				CHANNELS 3 Zrotation Xrotation Yrotation
				JOINT rFoot
				{
					OFFSET 0.731520 -45.110401 -5.120640 
					CHANNELS 3 Zrotation Xrotation Yrotation
					End Site
					{
						OFFSET -1.122100 -3.699640 12.103000 
					}
				}
			}
		}
	}
	JOINT lButtock
	{
		OFFSET 8.778240 4.350840 1.219200 
		CHANNELS 3 Zrotation Xrotation Yrotation
		JOINT lThigh
		{
			OFFSET 0.000000 -1.706870 -2.194560 
			CHANNELS 3 Zrotation Xrotation Yrotation
			JOINT lShin
			{
				OFFSET 0.000000 -36.819901 0.731520 
				CHANNELS 3 Zrotation Xrotation Yrotation
				JOINT lFoot
				{
					OFFSET -0.731520 -45.110401 -5.120640 
					CHANNELS 3 Zrotation Xrotation Yrotation
					End Site
					{
						OFFSET 1.122100 -3.699640 12.103000 
					}
				}
			}
		}
	}
}
JOINT hip2
{
	OFFSET 10.000000 0.000000 10.000000 
	CHANNELS 6 Xposition Yposition Zposition Zrotation Yrotation Xrotation
	JOINT abdomen
	{
		OFFSET 0.000000 20.688101 -0.731520 
		CHANNELS 3 Zrotation Xrotation Yrotation
		JOINT chest
		{
			OFFSET 0.000000 11.704300 -0.487680 
			CHANNELS 3 Zrotation Xrotation Yrotation
			JOINT neck
			{
				OFFSET 0.000000 22.189400 -2.194560 
				CHANNELS 3 Zrotation Xrotation Yrotation
				JOINT head
				{
					OFFSET -0.243840 7.071330 1.219200 
					CHANNELS 3 Zrotation Xrotation Yrotation
					JOINT leftEye
					{
						OFFSET 4.145280 8.046740 8.046720 
						CHANNELS 3 Zrotation Xrotation Yrotation
						End Site
						{
							OFFSET 1.000000 0.000000 0.000000 
						}
					}
					JOINT rightEye
					{
						OFFSET -3.657600 8.046740 8.046720 
						CHANNELS 3 Zrotation Xrotation Yrotation
						End Site
						{
							OFFSET 1.000000 0.000000 0.000000 
						}
					}
				}
			}
			JOINT rCollar
			{
				OFFSET -2.682240 19.263399 -4.876800 
				CHANNELS 3 Zrotation Xrotation Yrotation
				JOINT rShldr
				{
					OFFSET -8.778240 -1.950730 1.463040 
					CHANNELS 3 Zrotation Xrotation Yrotation
					JOINT rForeArm
					{
						OFFSET -28.174200 -1.711500 0.487680 
						CHANNELS 3 Zrotation Xrotation Yrotation
						JOINT rHand
						{
							OFFSET -22.587900 0.773209 7.071360 
							CHANNELS 3 Zrotation Xrotation Yrotation
							JOINT rThumb1
							{
								OFFSET -1.219200 -0.487915 3.413760 
								CHANNELS 3 Zrotation Xrotation Yrotation
								JOINT rThumb2
								{
									OFFSET -3.370350 -0.524490 3.413760 
									CHANNELS 3 Zrotation Xrotation Yrotation
									End Site
									{
										OFFSET -1.782710 -1.182140 1.430490 
									}
								}
							}
							JOINT rIndex1
							{
								OFFSET -7.759470 0.938293 5.608320 
								CHANNELS 3 Zrotation Xrotation Yrotation
								JOINT rIndex2
								{
									OFFSET -2.540570 -0.884171 1.565380 
									CHANNELS 3 Zrotation Xrotation Yrotation
									End Site
									{
										OFFSET -1.625190 -0.234802 1.165020 
									}
								}
							}
							JOINT rMid1
							{
								OFFSET -8.247140 1.182130 3.413760 
								CHANNELS 3 Zrotation Xrotation Yrotation
								JOINT rMid2
								{
									OFFSET -3.101650 -0.590103 1.064700 
									CHANNELS 3 Zrotation Xrotation Yrotation
									End Site
									{
										OFFSET -2.485470 -0.328903 0.837420 
									}
								}
							}
							JOINT rRing1
							{
								OFFSET -8.828220 0.546677 1.516780 
								CHANNELS 3 Zrotation Xrotation Yrotation
								JOINT rRing2
								{
									OFFSET -2.609340 -0.819778 -0.019849 
									CHANNELS 3 Zrotation Xrotation Yrotation
									End Site
									{
										OFFSET -2.338420 -0.294052 0.168128 
									}
								}
							}
							JOINT rPinky1
							{
								OFFSET -8.272020 -0.047791 -0.458400 
								CHANNELS 3 Zrotation Xrotation Yrotation
								JOINT rPinky2
								{
									OFFSET -1.827340 -0.647385 -0.700984 
									CHANNELS 3 Zrotation Xrotation Yrotation
									End Site
									{
										OFFSET -1.692250 -0.517670 -0.607171 
									}
								}
							}
						}
					}
				}
			}
			JOINT lCollar
			{
				OFFSET 2.682240 19.263399 -4.876800 
				CHANNELS 3 Zrotation Xrotation Yrotation
				JOINT lShldr
				{
					OFFSET 8.778240 -1.950730 1.463040 
					CHANNELS 3 Zrotation Xrotation Yrotation
					JOINT lForeArm
					{
						OFFSET 28.174200 -1.711500 0.487680 
						CHANNELS 3 Zrotation Xrotation Yrotation
						JOINT lHand
						{
							OFFSET 22.587900 0.773209 7.071360 
							CHANNELS 3 Zrotation Xrotation Yrotation
							JOINT lThumb1
							{
								OFFSET 1.219200 -0.487915 3.413760 
								CHANNELS 3 Zrotation Xrotation Yrotation
								JOINT lThumb2
								{
									OFFSET 3.370350 -0.524490 3.413760 
									CHANNELS 3 Zrotation Xrotation Yrotation
									End Site
									{
										OFFSET 1.782710 -1.182140 1.430490 
									}
								}
							}
							JOINT lIndex1
							{
								OFFSET 7.759470 0.938293 5.608320 
								CHANNELS 3 Zrotation Xrotation Yrotation
								JOINT lIndex2
								{
									OFFSET 2.540570 -0.884171 1.565380 
									CHANNELS 3 Zrotation Xrotation Yrotation
									End Site
									{
										OFFSET 1.625190 -0.234802 1.165020 
									}
								}
							}
							JOINT lMid1
							{
								OFFSET 8.247140 1.182130 3.413760 
								CHANNELS 3 Zrotation Xrotation Yrotation
								JOINT lMid2
								{
									OFFSET 3.101650 -0.590103 1.064700 
									CHANNELS 3 Zrotation Xrotation Yrotation
									End Site
									{
										OFFSET 2.485470 -0.328903 0.837420 
									}
								}
							}
							JOINT lRing1
							{
								OFFSET 8.828220 0.546677 1.516780 
								CHANNELS 3 Zrotation Xrotation Yrotation
								JOINT lRing2
								{
									OFFSET 2.609340 -0.819778 -0.019849 
									CHANNELS 3 Zrotation Xrotation Yrotation
									End Site
									{
										OFFSET 2.338420 -0.294052 0.168128 
									}
								}
							}
							JOINT lPinky1
							{
								OFFSET 8.272020 -0.047791 -0.458400 
								CHANNELS 3 Zrotation Xrotation Yrotation
								JOINT lPinky2
								{
									OFFSET 1.827340 -0.647385 -0.700984 
									CHANNELS 3 Zrotation Xrotation Yrotation
									End Site
									{
										OFFSET 1.692250 -0.517670 -0.607171 
									}
								}
							}
						}
					}
				}
			}
		}
	}
	JOINT rButtock
	{
		OFFSET -8.778240 4.350840 1.219200 
		CHANNELS 3 Zrotation Xrotation Yrotation
		JOINT rThigh
		{
			OFFSET 0.000000 -1.706870 -2.194560 
			CHANNELS 3 Zrotation Xrotation Yrotation
			JOINT rShin
			{
				OFFSET 0.000000 -36.819901 0.731520 
				CHANNELS 3 Zrotation Xrotation Yrotation
				JOINT rFoot
				{
					OFFSET 0.731520 -45.110401 -5.120640 
					CHANNELS 3 Zrotation Xrotation Yrotation
					End Site
					{
						OFFSET -1.122100 -3.699640 12.103000 
					}
				}
			}
		}
	}
	JOINT lButtock
	{
		OFFSET 8.778240 4.350840 1.219200 
		CHANNELS 3 Zrotation Xrotation Yrotation
		JOINT lThigh
		{
			OFFSET 0.000000 -1.706870 -2.194560 
			CHANNELS 3 Zrotation Xrotation Yrotation
			JOINT lShin
			{
				OFFSET 0.000000 -36.819901 0.731520 
				CHANNELS 3 Zrotation Xrotation Yrotation
				JOINT lFoot
				{
					OFFSET -0.731520 -45.110401 -5.120640 
					CHANNELS 3 Zrotation Xrotation Yrotation
					End Site
					{
						OFFSET 1.122100 -3.699640 12.103000 
					}
				}
			}
		}
	}
}
}
MOTION
Frames: 4
Frame Time: 0.008333
-221.593002 83.184998 0.000000 0.000000 0.000000 0.000000 -3.131210 0.002086 -0.084503 -0.863230 0.018197 -0.149331 0.000000 0.000000 -0.000000 0.000000 0.000000 -0.000000 -0.000000 0.000000 0.000000 -0.000000 0.000000 0.000000 0.000000 0.000000 -0.000000 0.000000 0.000000 -0.000000 0.000000 -0.000000 -0.000000 0.000000 0.000000 -0.000000 0.000000 0.000000 -0.000000 0.000000 0.000000 -0.000000 0.000000 0.000000 -0.000000 7.730910 5.474880 0.417314 0.000000 0.000000 -0.000000 2.905540 0.965183 0.102902 0.000000 0.000000 -0.000000 10.278600 0.731801 0.025912 0.000000 0.000000 -0.000000 2.221670 -0.733487 -0.208920 0.000000 0.000000 -0.000000 0.000000 0.000000 -0.000000 0.000000 0.000000 -0.000000 0.000000 -0.000000 -0.000000 0.000000 0.000000 -0.000000 0.000000 0.000000 -0.000000 0.000000 0.000000 -0.000000 -7.730910 5.474880 -0.417314 0.000000 0.000000 -0.000000 -2.905540 0.965183 -0.102902 0.000000 0.000000 -0.000000 -10.278600 0.731801 -0.025912 0.000000 0.000000 -0.000000 -2.221670 -0.733487 0.208920 -0.000000 0.000000 -0.000000 -1.918680 -1.935030 0.014623 -0.008501 -2.078670 -0.069768 -0.458773 4.000110 0.132475 0.000000 0.000000 0.000000 -2.838120 -9.326270 0.322347 -0.009026 11.307900 -0.235086 0.527235 -1.995110 -0.018350 -221.593002 83.184998 0.000000 0.000000 0.000000 0.000000 -3.131210 0.002086 -0.084503 -0.863230 0.018197 -0.149331 0.000000 0.000000 -0.000000 0.000000 0.000000 -0.000000 -0.000000 0.000000 0.000000 -0.000000 0.000000 0.000000 0.000000 0.000000 -0.000000 0.000000 0.000000 -0.000000 0.000000 -0.000000 -0.000000 0.000000 0.000000 -0.000000 0.000000 0.000000 -0.000000 0.000000 0.000000 -0.000000 0.000000 0.000000 -0.000000 7.730910 5.474880 0.417314 0.000000 0.000000 -0.000000 2.905540 0.965183 0.102902 0.000000 0.000000 -0.000000 10.278600 0.731801 0.025912 0.000000 0.000000 -0.000000 2.221670 -0.733487 -0.208920 0.000000 0.000000 -0.000000 0.000000 0.000000 -0.000000 0.000000 0.000000 -0.000000 0.000000 -0.000000 -0.000000 0.000000 0.000000 -0.000000 0.000000 0.000000 -0.000000 0.000000 0.000000 -0.000000 -7.730910 5.474880 -0.417314 0.000000 0.000000 -0.000000 -2.905540 0.965183 -0.102902 0.000000 0.000000 -0.000000 -10.278600 0.731801 -0.025912 0.000000 0.000000 -0.000000 -2.221670 -0.733487 0.208920 -0.000000 0.000000 -0.000000 -1.918680 -1.935030 0.014623 -0.008501 -2.078670 -0.069768 -0.458773 4.000110 0.132475 0.000000 0.000000 0.000000 -2.838120 -9.326270 0.322347 -0.009026 11.307900 -0.235086 0.527235 -1.995110 -0.018350 
-214.916000 82.000603 0.000000 25.703100 81.568001 23.680300 -3.666460 1.139630 -1.768310 -0.500863 2.193700 -0.681996 -3.882860 3.828420 0.053660 4.763120 -8.859520 1.601150 -0.000000 0.000000 0.000000 -0.000000 0.000000 0.000000 0.000000 -0.000000 0.000000 22.480301 7.061690 0.412034 -15.502900 -12.786300 14.664300 0.031351 3.931280 0.547826 0.000000 0.000000 -0.000000 0.000000 0.000000 -0.000000 0.000000 0.000000 -0.000000 7.730910 5.474880 0.417314 0.000000 0.000000 -0.000000 2.905540 0.965183 0.102902 0.000000 0.000000 -0.000000 10.278600 0.731801 0.025912 0.000000 0.000000 -0.000000 2.221670 -0.733487 -0.208920 0.000000 -0.000000 0.000000 -24.287701 14.110100 -0.095997 26.857901 -24.461100 -13.789200 -0.105493 -7.215620 0.985287 0.000000 -0.000000 0.000000 0.000000 -0.000000 0.000000 0.000000 -0.000000 0.000000 -7.730910 5.474880 -0.417314 0.000000 -0.000000 0.000000 -2.905540 0.965183 -0.102902 0.000000 -0.000000 0.000000 -10.278600 0.731801 -0.025912 0.000000 -0.000000 0.000000 -2.221670 -0.733487 0.208920 -0.000000 0.000000 -0.000000 -2.825560 -4.155820 -1.950760 0.073912 9.343950 0.179332 -1.542500 -4.420350 -5.733480 0.000000 0.000000 0.000000 -4.427390 -10.139000 -0.799022 0.008414 17.949900 -0.296220 0.293498 -6.419120 -1.494300 -214.916000 82.000603 0.000000 25.703100 81.568001 23.680300 -3.666460 1.139630 -1.768310 -0.500863 2.193700 -0.681996 -3.882860 3.828420 0.053660 4.763120 -8.859520 1.601150 -0.000000 0.000000 0.000000 -0.000000 0.000000 0.000000 0.000000 -0.000000 0.000000 22.480301 7.061690 0.412034 -15.502900 -12.786300 14.664300 0.031351 3.931280 0.547826 0.000000 0.000000 -0.000000 0.000000 0.000000 -0.000000 0.000000 0.000000 -0.000000 7.730910 5.474880 0.417314 0.000000 0.000000 -0.000000 2.905540 0.965183 0.102902 0.000000 0.000000 -0.000000 10.278600 0.731801 0.025912 0.000000 0.000000 -0.000000 2.221670 -0.733487 -0.208920 0.000000 -0.000000 0.000000 -24.287701 14.110100 -0.095997 26.857901 -24.461100 -13.789200 -0.105493 -7.215620 0.985287 0.000000 -0.000000 0.000000 0.000000 -0.000000 0.000000 0.000000 -0.000000 0.000000 -7.730910 5.474880 -0.417314 0.000000 -0.000000 0.000000 -2.905540 0.965183 -0.102902 0.000000 -0.000000 0.000000 -10.278600 0.731801 -0.025912 0.000000 -0.000000 0.000000 -2.221670 -0.733487 0.208920 -0.000000 0.000000 -0.000000 -2.825560 -4.155820 -1.950760 0.073912 9.343950 0.179332 -1.542500 -4.420350 -5.733480 0.000000 0.000000 0.000000 -4.427390 -10.139000 -0.799022 0.008414 17.949900 -0.296220 0.293498 -6.419120 -1.494300 
-214.828995 82.209900 0.000000 23.942900 81.444397 21.933001 -4.168660 2.337820 -3.545290 -0.071603 4.487970 -1.246690 -7.967430 7.904250 0.105376 10.338200 -18.240299 3.405120 -0.000000 0.000000 0.000000 -0.000000 0.000000 0.000000 0.000000 -0.000000 0.000000 46.135601 14.504200 0.858609 -24.573200 -23.431000 32.347801 -0.018082 8.100700 1.137660 0.000000 0.000000 -0.000000 0.000000 0.000000 -0.000000 0.000000 0.000000 -0.000000 7.730910 5.474880 0.417314 0.000000 0.000000 -0.000000 2.905540 0.965183 0.102902 0.000000 0.000000 -0.000000 10.278600 0.731801 0.025912 0.000000 0.000000 -0.000000 2.221670 -0.733487 -0.208920 0.000000 -0.000000 0.000000 -49.904301 29.038300 -0.198645 38.411598 -44.916500 -37.882900 0.061197 -14.829000 2.079170 0.000000 -0.000000 0.000000 0.000000 -0.000000 0.000000 0.000000 -0.000000 0.000000 -7.730910 5.474880 -0.417314 0.000000 -0.000000 0.000000 -2.905540 0.965183 -0.102902 0.000000 -0.000000 0.000000 -10.278600 0.731801 -0.025912 0.000000 -0.000000 0.000000 -2.221670 -0.733487 0.208920 -0.000000 0.000000 -0.000000 -3.954780 -6.487330 -4.046480 0.046544 21.413200 0.470152 -4.592750 -13.067000 -12.229700 0.000000 0.000000 0.000000 -6.144600 -10.992400 -1.987680 0.044230 24.965900 -0.370418 -0.208301 -11.072700 -3.107110 -214.828995 82.209900 0.000000 23.942900 81.444397 21.933001 -4.168660 2.337820 -3.545290 -0.071603 4.487970 -1.246690 -7.967430 7.904250 0.105376 10.338200 -18.240299 3.405120 -0.000000 0.000000 0.000000 -0.000000 0.000000 0.000000 0.000000 -0.000000 0.000000 46.135601 14.504200 0.858609 -24.573200 -23.431000 32.347801 -0.018082 8.100700 1.137660 0.000000 0.000000 -0.000000 0.000000 0.000000 -0.000000 0.000000 0.000000 -0.000000 7.730910 5.474880 0.417314 0.000000 0.000000 -0.000000 2.905540 0.965183 0.102902 0.000000 0.000000 -0.000000 10.278600 0.731801 0.025912 0.000000 0.000000 -0.000000 2.221670 -0.733487 -0.208920 0.000000 -0.000000 0.000000 -49.904301 29.038300 -0.198645 38.411598 -44.916500 -37.882900 0.061197 -14.829000 2.079170 0.000000 -0.000000 0.000000 0.000000 -0.000000 0.000000 0.000000 -0.000000 0.000000 -7.730910 5.474880 -0.417314 0.000000 -0.000000 0.000000 -2.905540 0.965183 -0.102902 0.000000 -0.000000 0.000000 -10.278600 0.731801 -0.025912 0.000000 -0.000000 0.000000 -2.221670 -0.733487 0.208920 -0.000000 0.000000 -0.000000 -3.954780 -6.487330 -4.046480 0.046544 21.413200 0.470152 -4.592750 -13.067000 -12.229700 0.000000 0.000000 0.000000 -6.144600 -10.992400 -1.987680 0.044230 24.965900 -0.370418 -0.208301 -11.072700 -3.107110 
-214.813004 82.207497 0.000000 22.975800 81.281197 21.080601 -4.536370 3.402630 -5.143960 0.345921 6.542110 -1.757270 -11.670500 11.485200 0.163904 15.920800 -26.490499 5.304400 -0.000000 0.000000 0.000000 -0.000000 0.000000 0.000000 0.000000 -0.000000 0.000000 67.117302 21.180500 1.315610 -27.071301 -27.850201 50.316502 -0.135582 11.789500 1.674950 0.000000 0.000000 -0.000000 0.000000 0.000000 -0.000000 0.000000 0.000000 -0.000000 7.730910 5.474880 0.417314 0.000000 0.000000 -0.000000 2.905540 0.965183 0.102902 0.000000 0.000000 -0.000000 10.278600 0.731801 0.025912 0.000000 0.000000 -0.000000 2.221670 -0.733487 -0.208920 0.000000 -0.000000 0.000000 -72.679001 42.329700 -0.377804 31.258101 -50.034801 -71.752502 0.475553 -21.620300 3.154590 0.000000 -0.000000 0.000000 0.000000 -0.000000 0.000000 0.000000 -0.000000 0.000000 -7.730910 5.474880 -0.417314 0.000000 -0.000000 0.000000 -2.905540 0.965183 -0.102902 0.000000 -0.000000 0.000000 -10.278600 0.731801 -0.025912 0.000000 -0.000000 0.000000 -2.221670 -0.733487 0.208920 -0.000000 0.000000 -0.000000 -5.100080 -8.559210 -5.932430 -0.100892 32.186901 0.792030 -9.062840 -20.306000 -18.608200 0.000000 0.000000 0.000000 -7.703230 -11.750800 -3.059990 0.094701 31.233500 -0.449512 -0.879049 -15.227200 -4.579190 -214.813004 82.207497 0.000000 22.975800 81.281197 21.080601 -4.536370 3.402630 -5.143960 0.345921 6.542110 -1.757270 -11.670500 11.485200 0.163904 15.920800 -26.490499 5.304400 -0.000000 0.000000 0.000000 -0.000000 0.000000 0.000000 0.000000 -0.000000 0.000000 67.117302 21.180500 1.315610 -27.071301 -27.850201 50.316502 -0.135582 11.789500 1.674950 0.000000 0.000000 -0.000000 0.000000 0.000000 -0.000000 0.000000 0.000000 -0.000000 7.730910 5.474880 0.417314 0.000000 0.000000 -0.000000 2.905540 0.965183 0.102902 0.000000 0.000000 -0.000000 10.278600 0.731801 0.025912 0.000000 0.000000 -0.000000 2.221670 -0.733487 -0.208920 0.000000 -0.000000 0.000000 -72.679001 42.329700 -0.377804 31.258101 -50.034801 -71.752502 0.475553 -21.620300 3.154590 0.000000 -0.000000 0.000000 0.000000 -0.000000 0.000000 0.000000 -0.000000 0.000000 -7.730910 5.474880 -0.417314 0.000000 -0.000000 0.000000 -2.905540 0.965183 -0.102902 0.000000 -0.000000 0.000000 -10.278600 0.731801 -0.025912 0.000000 -0.000000 0.000000 -2.221670 -0.733487 0.208920 -0.000000 0.000000 -0.000000 -5.100080 -8.559210 -5.932430 -0.100892 32.186901 0.792030 -9.062840 -20.306000 -18.608200 0.000000 0.000000 0.000000 -7.703230 -11.750800 -3.059990 0.094701 31.233500 -0.449512 -0.879049 -15.227200 -4.579190 
